<svg width="24" height="24" viewBox="0 0 24 24" fill="currentColor">
  <path d="M19,2L14,6.5V17.5L19,13V2M6.5,5C4.55,5.07 2.45,5.4 1,6.5V21.16C1,21.41 1.25,21.66 1.5,21.66C1.6,21.66 1.65,21.59 1.75,21.59C3.1,20.94 5.05,20.68 6.5,20.68C8.45,20.68 10.55,20.81 12,21.5C13.35,20.81 15.8,20.68 17.5,20.68C19.15,20.68 20.85,20.81 22.25,21.56C22.35,21.61 22.4,21.66 22.5,21.66C22.75,21.66 23,21.41 23,21.16V6.5C22.4,6.05 21.75,5.75 21,5.5V19C19.9,18.65 18.7,18.5 17.5,18.5C15.8,18.5 13.35,18.81 12,19.5C10.55,18.81 8.45,18.5 6.5,18.5C5.05,18.5 3.1,18.81 1.75,19.5V7.6C2.05,7.45 2.4,7.35 2.75,7.25C3.85,6.85 5.15,6.65 6.5,6.5V5Z"/>
</svg>